<svg width="80" height="80" viewBox="0 0 80 80" fill="none" xmlns="http://www.w3.org/2000/svg">
  <!-- Пар -->
  <path d="M20 25C20 25 22 20 25 22C28 24 26 28 26 28" stroke="#f5f1e8" stroke-width="2" stroke-linecap="round" opacity="0.8"/>
  <path d="M30 20C30 20 32 15 35 17C38 19 36 23 36 23" stroke="#f5f1e8" stroke-width="2" stroke-linecap="round" opacity="0.6"/>
  <path d="M45 25C45 25 47 20 50 22C53 24 51 28 51 28" stroke="#f5f1e8" stroke-width="2" stroke-linecap="round" opacity="0.8"/>
  
  <!-- Основная структура бани -->
  <rect x="15" y="35" width="50" height="30" rx="3" fill="#f5f1e8" stroke="#d4c4a8" stroke-width="2"/>
  
  <!-- Крыша -->
  <path d="M10 35L40 20L70 35H10Z" fill="#d4c4a8" stroke="#b8a082" stroke-width="2"/>
  
  <!-- Дверь -->
  <rect x="35" y="45" width="10" height="20" rx="1" fill="#b8a082" stroke="#9d8566" stroke-width="1"/>
  <circle cx="42" cy="55" r="1" fill="#9d8566"/>
  
  <!-- Окно -->
  <rect x="20" y="45" width="8" height="8" rx="1" fill="#e8dcc0" stroke="#d4c4a8" stroke-width="1"/>
  <line x1="24" y1="45" x2="24" y2="53" stroke="#d4c4a8" stroke-width="1"/>
  <line x1="20" y1="49" x2="28" y2="49" stroke="#d4c4a8" stroke-width="1"/>
  
  <!-- Веник -->
  <g transform="translate(52, 40)">
    <!-- Ручка -->
    <line x1="0" y1="0" x2="12" y2="15" stroke="#8b4513" stroke-width="2" stroke-linecap="round"/>
    <!-- Листья -->
    <ellipse cx="2" cy="2" rx="3" ry="6" fill="#228b22" opacity="0.8" transform="rotate(-30)"/>
    <ellipse cx="4" cy="1" rx="2.5" ry="5" fill="#32cd32" opacity="0.7" transform="rotate(-20)"/>
    <ellipse cx="6" cy="3" rx="3" ry="5.5" fill="#228b22" opacity="0.8" transform="rotate(-40)"/>
  </g>
  
  <!-- Ковш -->
  <g transform="translate(18, 60)">
    <ellipse cx="0" cy="0" rx="4" ry="2" fill="#8b4513"/>
    <line x1="-4" y1="0" x2="-8" y2="-3" stroke="#8b4513" stroke-width="2" stroke-linecap="round"/>
  </g>
</svg>